<svg xmlns="http://www.w3.org/2000/svg" xmlns:xlink="http://www.w3.org/1999/xlink" width="70" height="71" viewBox="0 0 70 71">
  <defs>
    <clipPath id="clip-path">
      <rect id="Rectangle_35" data-name="Rectangle 35" width="70" height="71" transform="translate(0.272)" fill="none"/>
    </clipPath>
  </defs>
  <g id="Group_19" data-name="Group 19" transform="translate(-0.272)">
    <g id="Group_4" data-name="Group 4" clip-path="url(#clip-path)">
      <path id="Path_536" data-name="Path 536" d="M35.272,70.543h0A35.272,35.272,0,1,1,70.543,35.272,35.272,35.272,0,0,1,35.272,70.543" fill="#642d12"/>
      <path id="Path_537" data-name="Path 537" d="M63.193,36.424a26.772,26.772,0,1,0,0,53.541c15.262,0,26.77-11.509,26.77-26.77a26.378,26.378,0,0,0-26.77-26.77m0,9.508c9.4,0,16.493,7.421,16.493,17.262,0,10-6.936,17.262-16.493,17.262A16.2,16.2,0,0,1,51.32,75.519a17.687,17.687,0,0,1-4.69-12.325c0-9.841,7.121-17.262,16.563-17.262" transform="translate(-27.922 -27.923)" fill="#fff"/>
      <path id="Path_538" data-name="Path 538" d="M129.2,124.167v1.311c-.016.073-.037.145-.048.219a6.716,6.716,0,0,1-1.186,2.88,16.532,16.532,0,0,1-2.471,2.752c-1.759,1.628-3.612,3.148-5.421,4.72a.624.624,0,0,1-.911.005c-1.818-1.58-3.683-3.106-5.45-4.745a16.165,16.165,0,0,1-2.551-2.88,6.293,6.293,0,0,1-.99-5.046,5.092,5.092,0,0,1,4.167-4.042,4.578,4.578,0,0,1,3.1.566,5.929,5.929,0,0,1,2.059,2.131c.109.182.118.182.224.005a6.679,6.679,0,0,1,.719-1,4.657,4.657,0,0,1,4.985-1.577,4.928,4.928,0,0,1,3.451,3.3,7.683,7.683,0,0,1,.32,1.4" transform="translate(-84.331 -91.435)" fill="#e48399"/>
    </g>
  </g>
</svg>
